<mxfile host="65bd71144e">
    <diagram id="T1CgLPqpMVWq9wOfrrgY" name="Page-1">
        <mxGraphModel dx="896" dy="614" grid="1" gridSize="10" guides="1" tooltips="1" connect="1" arrows="1" fold="1" page="1" pageScale="1" pageWidth="850" pageHeight="1100" math="0" shadow="0">
            <root>
                <mxCell id="0"/>
                <mxCell id="1" parent="0"/>
                <mxCell id="2" value="Cabecera" style="rounded=0;whiteSpace=wrap;html=1;" vertex="1" parent="1">
                    <mxGeometry x="70" y="20" width="740" height="80" as="geometry"/>
                </mxCell>
                <mxCell id="3" value="Menu de navegacion" style="rounded=0;whiteSpace=wrap;html=1;" vertex="1" parent="1">
                    <mxGeometry x="70" y="100" width="740" height="50" as="geometry"/>
                </mxCell>
                <mxCell id="4" value="Pie de pagina" style="rounded=0;whiteSpace=wrap;html=1;" vertex="1" parent="1">
                    <mxGeometry x="70" y="930" width="730" height="150" as="geometry"/>
                </mxCell>
                <mxCell id="5" value="Descripcion" style="rounded=0;whiteSpace=wrap;html=1;" vertex="1" parent="1">
                    <mxGeometry x="125" y="170" width="635" height="160" as="geometry"/>
                </mxCell>
                <mxCell id="6" value="Explicacion origenes de la celebracion navideÃ±a en el colegio" style="rounded=0;whiteSpace=wrap;html=1;" vertex="1" parent="1">
                    <mxGeometry x="125" y="350" width="635" height="180" as="geometry"/>
                </mxCell>
                <mxCell id="7" value="Informacion sobre los escolapios en la navidad" style="rounded=0;whiteSpace=wrap;html=1;" vertex="1" parent="1">
                    <mxGeometry x="125" y="530" width="635" height="130" as="geometry"/>
                </mxCell>
                <mxCell id="8" value="Imagen" style="rounded=0;whiteSpace=wrap;html=1;" vertex="1" parent="1">
                    <mxGeometry x="125" y="660" width="315" height="240" as="geometry"/>
                </mxCell>
                <mxCell id="9" value="Imagen" style="rounded=0;whiteSpace=wrap;html=1;" vertex="1" parent="1">
                    <mxGeometry x="440" y="660" width="320" height="240" as="geometry"/>
                </mxCell>
            </root>
        </mxGraphModel>
    </diagram>
</mxfile>